<svg id="Layer_1" data-name="Layer 1" xmlns="http://www.w3.org/2000/svg" viewBox="0 0 128 128"><defs><style>.cls-1{fill:#e3f2ff;}.cls-2{fill:#263b7e;}.cls-3{fill:#a6c3ff;}.cls-4{fill:#d4e2ff;}</style></defs><title>icon</title><rect class="cls-1" width="128" height="128"/><path class="cls-2" d="M76.19,36.54a3.55,3.55,0,0,0-4.64-1.94l-12.21,5,2.71,6.58,12.2-5a3.54,3.54,0,0,0,1.94-4.63"/><path class="cls-2" d="M59.29,78.05a13.6,13.6,0,0,1-17.74-7.41l-14-34A13.6,13.6,0,0,1,35,18.89l.2-.08L59.07,9l3-1.22A32,32,0,0,1,94,62.43l9.64,23.46L73.12,73.14,67.59,59.7l13.49-5.54h0a18.16,18.16,0,0,0-13.8-33.6l-3,1.22L43.68,30.26a3.5,3.5,0,0,0-1.91,4.57L59.49,78Z"/><path class="cls-3" d="M43.6,99.1a1.51,1.51,0,0,1,2.15-.7c.87.48,1.68.64,1.37,1.59-.77,2.36-3.28,11.15-3.28,11.15l62.31-.09a1.74,1.74,0,0,1,0,3.48v8a1.21,1.21,0,1,1-2.42,0v-8l-9.61,0v8.25a1.21,1.21,0,1,1-2.42,0v-8.25l-26.19,0v8a1.21,1.21,0,1,1-2.42,0v-8l-10,0v7.93a1.22,1.22,0,1,1-2.43,0v-7.93l-9.89,0h0a1.64,1.64,0,0,1-1.09-.44,1.73,1.73,0,0,1-.54-1.31C39.18,112.33,42.56,102.46,43.6,99.1Z"/><path class="cls-2" d="M105,126.4h0a3.75,3.75,0,0,1-3.62-3.86h0a3.75,3.75,0,0,1,3.62-3.86h0a3.74,3.74,0,0,1,3.61,3.86h0A3.74,3.74,0,0,1,105,126.4Z"/><path class="cls-2" d="M64.33,126.4h0a3.75,3.75,0,0,1-3.62-3.86h0a3.75,3.75,0,0,1,3.62-3.86h0a3.74,3.74,0,0,1,3.61,3.86h0A3.74,3.74,0,0,1,64.33,126.4Z"/><path class="cls-2" d="M92.94,126.4h0a3.74,3.74,0,0,1-3.61-3.86h0a3.74,3.74,0,0,1,3.61-3.86h0a3.75,3.75,0,0,1,3.62,3.86h0A3.75,3.75,0,0,1,92.94,126.4Z"/><path class="cls-2" d="M52,126.4h0a3.75,3.75,0,0,1-3.62-3.86h0A3.75,3.75,0,0,1,52,118.68h0a3.74,3.74,0,0,1,3.61,3.86h0A3.74,3.74,0,0,1,52,126.4Z"/><path class="cls-4" d="M43.58,100.22a1,1,0,0,1-1-.81L28.79,46.78a1.05,1.05,0,0,0-1-.81c-1.61,0-1.89,0-3.28-.06a1.09,1.09,0,0,1-1-1.13h0a1.08,1.08,0,0,1,1.06-1.1l3.58.06c1.53,0,2.07.53,2.44,1.55l14,53.52a1.12,1.12,0,0,1-.72,1.37A1,1,0,0,1,43.58,100.22Z"/><path class="cls-4" d="M107.83,100.25H43.58a1.12,1.12,0,0,1,0-2.23h63.6l0-38.3L31.43,53.85a1.12,1.12,0,0,1,0-2.23l76.84,5.86a1,1,0,0,1,.74.34,1.09,1.09,0,0,1,.3.79l0,40.12a1.12,1.12,0,0,1-.41.87A1.23,1.23,0,0,1,107.83,100.25Zm.39-.42Z"/><path class="cls-2" d="M24.37,46.87H8.88a2,2,0,0,1-1.92-2H7a2,2,0,0,1,1.92-2H24.37a2,2,0,0,1,1.92,2h0A2,2,0,0,1,24.37,46.87Z"/><path class="cls-4" d="M95,99.56a.47.47,0,0,1-.49-.46V57.67a.49.49,0,0,1,1,0V99.1A.47.47,0,0,1,95,99.56Z"/><path class="cls-4" d="M82.47,99.56a.48.48,0,0,1-.49-.48V56.45a.49.49,0,0,1,1,0V99.08A.48.48,0,0,1,82.47,99.56Z"/><path class="cls-4" d="M70,99.56a.48.48,0,0,1-.49-.48V56.45a.49.49,0,0,1,1,0V99.08A.48.48,0,0,1,70,99.56Z"/><path class="cls-4" d="M45.05,99.56a.5.5,0,0,1-.49-.51V53.63a.49.49,0,1,1,1,0V99.05A.5.5,0,0,1,45.05,99.56Z"/><path class="cls-4" d="M57.52,99.56a.49.49,0,0,1-.49-.49V55.18a.49.49,0,1,1,1,0V99.07A.49.49,0,0,1,57.52,99.56Z"/><path class="cls-4" d="M108.17,65.8H34.73a.52.52,0,0,1,0-1h73.44a.52.52,0,0,1,0,1Z"/><path class="cls-4" d="M108.82,81.27h-70a.5.5,0,0,1-.49-.52.51.51,0,0,1,.49-.53h70a.51.51,0,0,1,.49.53A.5.5,0,0,1,108.82,81.27Z"/></svg>